<svg xmlns="http://www.w3.org/2000/svg" xmlns:xlink="http://www.w3.org/1999/xlink" width="320" height="180" version="1.1" viewBox="0 0 320 180"><title>clickable-tile</title><defs><polygon id="path-1" points="17.94 21.186 13.522 23.062 10.993 17.104 7.2 20.897 7.2 1.903 20.897 15.6 15.569 15.6"/><filter id="filter-2" width="156.3%" height="137.2%" x="-25.6%" y="-15.2%" filterUnits="objectBoundingBox"><feMorphology in="SourceAlpha" operator="dilate" radius=".25" result="shadowSpreadOuter1"/><feOffset dx="0" dy="1" in="shadowSpreadOuter1" result="shadowOffsetOuter1"/><feGaussianBlur in="shadowOffsetOuter1" result="shadowBlurOuter1" stdDeviation=".75"/><feColorMatrix in="shadowBlurOuter1" type="matrix" values="0 0 0 0 0 0 0 0 0 0 0 0 0 0 0 0 0 0 0.15 0"/></filter><polygon id="path-3" points="17.94 21.186 13.522 23.062 10.993 17.104 7.2 20.897 7.2 1.903 20.897 15.6 15.569 15.6"/><filter id="filter-4" width="127.4%" height="117.7%" x="-13.7%" y="-5.3%" filterUnits="objectBoundingBox"><feOffset dx="0" dy=".75" in="SourceAlpha" result="shadowOffsetOuter1"/><feGaussianBlur in="shadowOffsetOuter1" result="shadowBlurOuter1" stdDeviation=".5"/><feColorMatrix in="shadowBlurOuter1" type="matrix" values="0 0 0 0 0 0 0 0 0 0 0 0 0 0 0 0 0 0 0.2 0"/></filter></defs><g id="clickable-tile" fill="none" fill-rule="evenodd" stroke="none" stroke-width="1"><rect id="Rectangle" width="176" height="98" x="72" y="41" fill="#E0E0E0" stroke="#0F62FE" stroke-width="1.5"/><rect id="Rectangle-Copy-4" width="90" height="8" x="85" y="54" fill="#A8A8A8"/><g id="Group" transform="translate(212.000000, 97.000000)"><g id="Soft-Shadow" fill="#000" fill-opacity="1"><use filter="url(#filter-2)" xlink:href="#path-1"/></g><g id="Hard-Shadow" fill="#000" fill-opacity="1"><use filter="url(#filter-4)" xlink:href="#path-3"/></g><polygon id="Ouline" fill="#FFF" points="17.94 21.186 13.522 23.062 10.993 17.104 7.2 20.897 7.2 1.903 20.897 15.6 15.569 15.6"/><polygon id="Arrow" fill="#000" points="13.756 14.4 18 14.4 8.4 4.8 8.4 18 11.402 14.998 14.158 21.488 16.367 20.551"/></g></g></svg>