<svg xmlns="http://www.w3.org/2000/svg" xmlns:xlink="http://www.w3.org/1999/xlink" width="320" height="180" version="1.1" viewBox="0 0 320 180"><title>composed-modal</title><defs><rect id="path-1" width="200" height="90" x="60" y="44"/><filter id="filter-2" width="110%" height="122.2%" x="-5%" y="-8.9%" filterUnits="objectBoundingBox"><feOffset dx="0" dy="2" in="SourceAlpha" result="shadowOffsetOuter1"/><feGaussianBlur in="shadowOffsetOuter1" result="shadowBlurOuter1" stdDeviation="3"/><feColorMatrix in="shadowBlurOuter1" type="matrix" values="0 0 0 0 0.862745106 0 0 0 0 0.862745106 0 0 0 0 0.862745106 0 0 0 1 0"/></filter><polygon id="path-3" points="6.53 6 9 3.53 8.47 3 6 5.47 3.53 3 3 3.53 5.47 6 3 8.47 3.53 9 6 6.53 8.47 9 9 8.47"/></defs><g id="composed-modal" fill="none" fill-rule="evenodd" stroke="none" stroke-width="1"><g id="Rectangle-Copy" fill="#000" fill-opacity="1"><use filter="url(#filter-2)" xlink:href="#path-1"/></g><g id="color/gray/10-copy-11" fill="#F3F3F3" transform="translate(60.000000, 44.000000)"><rect id="Rectangle" width="200" height="90" x="0" y="0"/></g><g id="checkbox" fill="#161616" transform="translate(69.000000, 76.000000)"><path id="Fill" d="M9.75,1.5 L2.25,1.5 C1.83578644,1.5 1.5,1.83578644 1.5,2.25 L1.5,9.75 C1.5,10.1642136 1.83578644,10.5 2.25,10.5 L9.75,10.5 C10.1642136,10.5 10.5,10.1642136 10.5,9.75 L10.5,2.25 C10.5,1.83578644 10.1642136,1.5 9.75,1.5 Z M2.25,9.75 L2.25,2.25 L9.75,2.25 L9.75,9.75 L2.25,9.75 Z"/></g><g id="icon/navigation/close/16-copy-3" transform="translate(239.000000, 53.000000)"><mask id="mask-4" fill="#fff"><use xlink:href="#path-3"/></mask><use id="icon-color" fill="#000" xlink:href="#path-3"/></g><rect id="Rectangle-Copy-5" width="58" height="7" x="70" y="57" fill="#8D8D8D"/><rect id="Rectangle-Copy-20" width="101" height="26" x="160" y="108" fill="#C6C6C6"/><rect id="Rectangle-Copy-21" width="96" height="5" x="88" y="79" fill="#A8A8A8"/></g></svg>