<svg xmlns="http://www.w3.org/2000/svg" xmlns:xlink="http://www.w3.org/1999/xlink" width="320" height="180" version="1.1" viewBox="0 0 320 180"><title>context-menu</title><defs><polygon id="path-1" points="56 32 142.963 32 162 32 162 147 56 147"/><filter id="filter-2" width="118.9%" height="117.4%" x="-9.4%" y="-7%" filterUnits="objectBoundingBox"><feOffset dx="0" dy="2" in="SourceAlpha" result="shadowOffsetOuter1"/><feGaussianBlur in="shadowOffsetOuter1" result="shadowBlurOuter1" stdDeviation="3"/><feColorMatrix in="shadowBlurOuter1" type="matrix" values="0 0 0 0 0 0 0 0 0 0 0 0 0 0 0 0 0 0 0.3 0"/></filter><polygon id="path-3" points="0 0 83.682 0 102 0 102 55 0 55"/><filter id="filter-4" width="119.6%" height="136.4%" x="-9.8%" y="-14.5%" filterUnits="objectBoundingBox"><feOffset dx="0" dy="2" in="SourceAlpha" result="shadowOffsetOuter1"/><feGaussianBlur in="shadowOffsetOuter1" result="shadowBlurOuter1" stdDeviation="3"/><feColorMatrix in="shadowBlurOuter1" type="matrix" values="0 0 0 0 0 0 0 0 0 0 0 0 0 0 0 0 0 0 0.3 0"/></filter><polygon id="path-5" points="4.875 3.375 7.875 6 4.875 8.625"/><polygon id="path-7" points="8.223 9.71 6.198 10.57 5.038 7.839 3.3 9.578 3.3 .872 9.578 7.15 7.136 7.15"/><filter id="filter-8" width="222.8%" height="181.1%" x="-55.8%" y="-33.1%" filterUnits="objectBoundingBox"><feMorphology in="SourceAlpha" operator="dilate" radius=".25" result="shadowSpreadOuter1"/><feOffset dx="0" dy="1" in="shadowSpreadOuter1" result="shadowOffsetOuter1"/><feGaussianBlur in="shadowOffsetOuter1" result="shadowBlurOuter1" stdDeviation=".75"/><feColorMatrix in="shadowBlurOuter1" type="matrix" values="0 0 0 0 0 0 0 0 0 0 0 0 0 0 0 0 0 0 0.15 0"/></filter><polygon id="path-9" points="8.223 9.71 6.198 10.57 5.038 7.839 3.3 9.578 3.3 .872 9.578 7.15 7.136 7.15"/><filter id="filter-10" width="159.7%" height="138.7%" x="-29.9%" y="-11.6%" filterUnits="objectBoundingBox"><feOffset dx="0" dy=".75" in="SourceAlpha" result="shadowOffsetOuter1"/><feGaussianBlur in="shadowOffsetOuter1" result="shadowBlurOuter1" stdDeviation=".5"/><feColorMatrix in="shadowBlurOuter1" type="matrix" values="0 0 0 0 0 0 0 0 0 0 0 0 0 0 0 0 0 0 0.2 0"/></filter></defs><g id="context-menu" fill="none" fill-rule="evenodd" stroke="none" stroke-width="1"><rect id="Rectangle-Copy-4" width="13.65" height="17" x="56" y="111"/><g id="Rectangle-2-Copy-17"><use fill="#000" fill-opacity="1" filter="url(#filter-2)" xlink:href="#path-1"/><use fill="#F3F3F3" fill-rule="evenodd" xlink:href="#path-1"/></g><rect id="Rectangle-2-Copy-28" width="105" height="16" x="56" y="35" fill="#DCDCDC" opacity=".6"/><rect id="Rectangle-2-Copy-29" width="106" height="1" x="56" y="54" fill="#C6C6C6" opacity=".6"/><rect id="Rectangle-2-Copy-30" width="106" height="1" x="56" y="109" fill="#C6C6C6" opacity=".6"/><rect id="Rectangle-3-Copy-9" width="43.05" height="4" x="65.45" y="41" fill="#8D8D8D"/><rect id="Rectangle-3-Copy-14" width="43.05" height="4" x="65.45" y="118" fill="#BEBEBE"/><rect id="Rectangle-3-Copy-15" width="52" height="4" x="65.45" y="134" fill="#BEBEBE"/><rect id="Rectangle-3-Copy-10" width="52" height="4" x="65.45" y="64" fill="#BEBEBE"/><rect id="Rectangle-3-Copy-11" width="43.05" height="4" x="65.45" y="80" fill="#BEBEBE"/><rect id="Rectangle-3-Copy-12" width="52" height="4" x="65.45" y="96" fill="#BEBEBE"/><g id="Rectangle-2-Copy-17" transform="translate(162.000000, 32.000000)"><use fill="#000" fill-opacity="1" filter="url(#filter-4)" xlink:href="#path-3"/><use fill="#F3F3F3" fill-rule="evenodd" xlink:href="#path-3"/></g><rect id="Rectangle-3-Copy-13" width="51" height="4" x="183.45" y="41" fill="#BEBEBE"/><rect id="Rectangle-3-Copy-16" width="43.05" height="4" x="183.45" y="57" fill="#BEBEBE"/><rect id="Rectangle-2-Copy-33" width="103" height="16" x="162" y="67" fill="#DCDCDC" opacity=".6"/><rect id="Rectangle-3-Copy-17" width="51" height="4" x="183.45" y="73" fill="#8D8D8D"/><g id="icon/navigation/caret/right/16" transform="translate(140.000000, 37.000000)"><mask id="mask-6" fill="#fff"><use xlink:href="#path-5"/></mask><use id="icon-color" fill="#000" xlink:href="#path-5"/></g><g id="icon/hover-states/arrow-cursor" transform="translate(241.000000, 70.000000)"><g id="Soft-Shadow" fill="#000" fill-opacity="1"><use filter="url(#filter-8)" xlink:href="#path-7"/></g><g id="Hard-Shadow" fill="#000" fill-opacity="1"><use filter="url(#filter-10)" xlink:href="#path-9"/></g><polygon id="Ouline" fill="#FFF" points="8.223 9.71 6.198 10.57 5.038 7.839 3.3 9.578 3.3 .872 9.578 7.15 7.136 7.15"/><polygon id="Arrow" fill="#000" points="6.305 6.6 8.25 6.6 3.85 2.2 3.85 8.25 5.226 6.874 6.489 9.849 7.501 9.419"/></g><polygon id="Path" fill="#000" points="172.643 45 170.5 42.874 171.181 42.214 172.643 43.65 175.819 40.5 176.5 41.177"/></g></svg>