<svg xmlns="http://www.w3.org/2000/svg" xmlns:xlink="http://www.w3.org/1999/xlink" width="320" height="180" version="1.1" viewBox="0 0 320 180"><title>form</title><defs><polygon id="path-1" points="2.5 0 5 2.5 4.646 2.853 2.5 .707 .353 2.853 0 2.5"/><polygon id="path-3" points="2.5 0 5 2.5 4.646 2.853 2.5 .707 .353 2.853 0 2.5"/><polygon id="path-5" points="2.5 0 5 2.5 4.646 2.853 2.5 .707 .353 2.853 0 2.5"/></defs><g id="form" fill="none" fill-rule="evenodd" stroke="none" stroke-width="1"><g id="color/gray/10-copy-12" fill="#F3F3F3" transform="translate(90.000000, 32.000000)"><rect id="Rectangle" width="152" height="116" x="0" y="0"/></g><rect id="Rectangle-Copy-6" width="48.599" height="5" x="99" y="41" fill="#A8A8A8"/><rect id="Rectangle-Copy-14" width="89" height="3" x="99" y="52" fill="#C6C6C6"/><rect id="Rectangle-Copy-26" width="72.759" height="3" x="99" y="58" fill="#C6C6C6"/><rect id="Rectangle-25-Copy-22" width="150.86" height="14.86" x="90.57" y="72.57" fill="#FFF" stroke="#006AFF" stroke-width="1.14"/><rect id="Rectangle-Copy-27" width="62.949" height="3" x="99" y="78" fill="#C6C6C6"/><rect id="Rectangle-Copy-28" width="33.949" height="3" x="99" y="95" fill="#C6C6C6"/><rect id="Rectangle-Copy-30" width="38.949" height="3" x="111" y="112" fill="#C6C6C6"/><rect id="Rectangle-Copy-29" width="33.949" height="3" x="172" y="95" fill="#C6C6C6"/><rect id="Rectangle-Copy-56" width="151" height="1" x="91" y="104" fill="#C6C6C6"/><rect id="Rectangle-Copy-57" width="1" height="16" x="163" y="88" fill="#C6C6C6"/><g id="Group" transform="translate(228.000000, 76.000000)"><g id="Group" transform="translate(4.000000, 4.000000) scale(1, -1) translate(-4.000000, -4.000000)"><g id="chevron--up" transform="translate(1.500000, 2.500000)"><mask id="mask-2" fill="#fff"><use xlink:href="#path-1"/></mask><use id="Mask" fill="#000" fill-rule="nonzero" xlink:href="#path-1"/><g id="Group" mask="url(#mask-2)"><g id="icon-color" transform="translate(-1.500000, -2.500000)"><rect id="Rectangle" width="20" height="20" x="0" y="0" fill="#000"/></g></g></g><polygon id="transparent-rectangle" points="0 0 8 0 8 8 0 8" transform="translate(4.000000, 4.000000) rotate(-90.000000) translate(-4.000000, -4.000000)"/></g></g><g id="Group" transform="translate(228.000000, 92.000000)"><g id="Group" transform="translate(4.000000, 4.000000) scale(1, -1) translate(-4.000000, -4.000000)"><g id="chevron--up" transform="translate(1.500000, 2.500000)"><mask id="mask-4" fill="#fff"><use xlink:href="#path-3"/></mask><use id="Mask" fill="#000" fill-rule="nonzero" xlink:href="#path-3"/><g id="Group" mask="url(#mask-4)"><g id="icon-color" transform="translate(-1.500000, -2.500000)"><rect id="Rectangle" width="20" height="20" x="0" y="0" fill="#000"/></g></g></g><polygon id="transparent-rectangle" points="0 0 8 0 8 8 0 8" transform="translate(4.000000, 4.000000) rotate(-90.000000) translate(-4.000000, -4.000000)"/></g></g><g id="Group" transform="translate(149.000000, 92.000000)"><g id="Group" transform="translate(4.000000, 4.000000) scale(1, -1) translate(-4.000000, -4.000000)"><g id="chevron--up" transform="translate(1.500000, 2.500000)"><mask id="mask-6" fill="#fff"><use xlink:href="#path-5"/></mask><use id="Mask" fill="#000" fill-rule="nonzero" xlink:href="#path-5"/><g id="Group" mask="url(#mask-6)"><g id="icon-color" transform="translate(-1.500000, -2.500000)"><rect id="Rectangle" width="20" height="20" x="0" y="0" fill="#000"/></g></g></g><polygon id="transparent-rectangle" points="0 0 8 0 8 8 0 8" transform="translate(4.000000, 4.000000) rotate(-90.000000) translate(-4.000000, -4.000000)"/></g></g><rect id="Rectangle-Copy-24" width="76" height="18" x="166" y="130" fill="#0F6DFF"/><rect id="Rectangle-Copy-25" width="75" height="18" x="90" y="130" fill="#3D3D3D"/><g id="checkbox" fill="#161616" transform="translate(97.000000, 109.000000)"><path id="Fill" d="M7.3125,1.125 L1.6875,1.125 C1.37683983,1.125 1.125,1.37683983 1.125,1.6875 L1.125,7.3125 C1.125,7.62316017 1.37683983,7.875 1.6875,7.875 L7.3125,7.875 C7.62316017,7.875 7.875,7.62316017 7.875,7.3125 L7.875,1.6875 C7.875,1.37683983 7.62316017,1.125 7.3125,1.125 Z M1.6875,7.3125 L1.6875,1.6875 L7.3125,1.6875 L7.3125,7.3125 L1.6875,7.3125 Z"/></g></g></svg>