<svg xmlns="http://www.w3.org/2000/svg" xmlns:xlink="http://www.w3.org/1999/xlink" width="320" height="180" version="1.1" viewBox="0 0 320 180"><title>password-input</title><defs><path id="path-1" d="M15.47,7.83 C14.266932,4.72169147 11.330606,2.626562 8,2.5 C4.66939395,2.626562 1.73306803,4.72169147 0.53,7.83 C0.490283624,7.9398538 0.490283624,8.0601462 0.53,8.17 C1.73306803,11.2783085 4.66939395,13.373438 8,13.5 C11.330606,13.373438 14.266932,11.2783085 15.47,8.17 C15.5097164,8.0601462 15.5097164,7.9398538 15.47,7.83 Z M8,12.5 C5.35,12.5 2.55,10.535 1.535,8 C2.55,5.465 5.35,3.5 8,3.5 C10.65,3.5 13.45,5.465 14.465,8 C13.45,10.535 10.65,12.5 8,12.5 Z M8,5 C6.34314575,5 5,6.34314575 5,8 C5,9.65685425 6.34314575,11 8,11 C9.65685425,11 11,9.65685425 11,8 C11,6.34314575 9.65685425,5 8,5 Z M8,10 C6.8954305,10 6,9.1045695 6,8 C6,6.8954305 6.8954305,6 8,6 C9.1045695,6 10,6.8954305 10,8 C10,8.53043298 9.78928632,9.03914081 9.41421356,9.41421356 C9.03914081,9.78928632 8.53043298,10 8,10 Z"/></defs><g id="password-input" fill="none" fill-rule="evenodd" stroke="none" stroke-width="1"><g id="Group-21" transform="translate(56.000000, 75.000000)"><rect id="Rectangle-11-Copy" width="208" height="32" x="0" y="0" fill="#F3F3F3"/><line id="Path-3-Copy-8" x1="0" x2="208" y1="31.5" y2="31.5" stroke="#8C8C8C"/></g><g id="Group" transform="translate(234.000000, 83.000000)"><mask id="mask-2" fill="#fff"><use xlink:href="#path-1"/></mask><use id="icon-color" fill="#000" xlink:href="#path-1"/></g><circle id="Oval" cx="71.5" cy="91.5" r="2.5" fill="#161616"/><circle id="Oval-Copy" cx="80.5" cy="91.5" r="2.5" fill="#161616"/><circle id="Oval-Copy-2" cx="89.5" cy="91.5" r="2.5" fill="#161616"/><circle id="Oval-Copy-3" cx="98.5" cy="91.5" r="2.5" fill="#161616"/><circle id="Oval-Copy-4" cx="107.5" cy="91.5" r="2.5" fill="#161616"/><circle id="Oval-Copy-5" cx="116.5" cy="91.5" r="2.5" fill="#161616"/><circle id="Oval-Copy-6" cx="125.5" cy="91.5" r="2.5" fill="#161616"/><circle id="Oval-Copy-7" cx="134.5" cy="91.5" r="2.5" fill="#161616"/></g></svg>