<svg xmlns="http://www.w3.org/2000/svg" xmlns:xlink="http://www.w3.org/1999/xlink" width="320" height="180" version="1.1" viewBox="0 0 320 180"><title>selectable-tile</title><defs><circle id="path-1" cx="6.5" cy="6.5" r="5.688"/><polygon id="path-3" points="5.688 8.734 3.656 6.703 4.302 6.094 5.688 7.455 8.698 4.469 9.344 5.111"/><circle id="path-5" cx="6.5" cy="6.5" r="5.688"/><polygon id="path-7" points="5.688 8.734 3.656 6.703 4.302 6.094 5.688 7.455 8.698 4.469 9.344 5.111"/></defs><g id="selectable-tile" fill="none" fill-rule="evenodd" stroke="none" stroke-width="1"><g id="Group-Copy-2" fill="#F3F3F3" transform="translate(56.000000, 109.000000)"><rect id="Rectangle" width="141" height="38" x="0" y="0"/><rect id="Rectangle" width="208" height="38" x="0" y="0"/></g><g id="Group" fill="#F3F3F3" transform="translate(56.000000, 33.000000)"><rect id="Rectangle" width="141" height="38" x="0" y="0"/><rect id="Rectangle" width="208" height="38" x="0" y="0" stroke="#161616" stroke-width=".8"/></g><g id="Group-Copy" fill="#F3F3F3" transform="translate(56.000000, 71.000000)"><rect id="Rectangle" width="141" height="38" x="0" y="0"/><rect id="Rectangle" width="208" height="38" x="0" y="0" stroke="#161616" stroke-width=".8"/></g><rect id="Rectangle-Copy-4" width="72" height="6" x="67" y="44" fill="#C6C6C6"/><rect id="Rectangle-Copy-5" width="72" height="6" x="67" y="82" fill="#C6C6C6"/><g id="icon/status/checkmark-filled/16" transform="translate(243.000000, 41.000000)"><mask id="mask-2" fill="#fff"><use xlink:href="#path-1"/></mask><use id="icon-color" fill="#000" xlink:href="#path-1"/><mask id="mask-4" fill="#fff"><use xlink:href="#path-3"/></mask><use id="icon-color" fill="#FFF" xlink:href="#path-3"/></g><g id="icon/status/checkmark-filled/16" transform="translate(243.000000, 79.000000)"><mask id="mask-6" fill="#fff"><use xlink:href="#path-5"/></mask><use id="icon-color" fill="#000" xlink:href="#path-5"/><mask id="mask-8" fill="#fff"><use xlink:href="#path-7"/></mask><use id="icon-color" fill="#FFF" xlink:href="#path-7"/></g><rect id="Rectangle-Copy-6" width="72" height="6" x="67" y="120" fill="#C6C6C6"/></g></svg>